<svg xmlns="http://www.w3.org/2000/svg" viewBox="0 0 298.13 295.67"><defs><style>.cls-1{fill:#4c9dd6;}.cls-2{fill:#a8e0f9;}.cls-3{fill:#004076;}.cls-4{fill:#000f35;}.cls-5{fill:none;stroke:#231f20;stroke-width:4px;}</style></defs><g id="Layer_3" data-name="Layer 3"><path class="cls-1" d="M157.23,427.17s8.28-81,77.42-56.58l-4.91,5.51,33.71,46.73-45.19,25.53,6.38-19.15-29.36-30.64,2.29,72-40.34-25.28Z" transform="translate(-155.23 -230.81)"/><path class="cls-1" d="M296.89,388.87s24.35,5.35,35.54,20.67l1,93.45-35.75,21.2-72-39.32.69-25.39,45.27-22.87-.77,26.56,26.79,14.29Z" transform="translate(-155.23 -230.81)"/><path class="cls-1" d="M346.17,415.17s30.42,17.32,48.26,9.44,21.7-9.44,21.7-9.44,35.23-25.54,35.23-34.47l-.7,61.64-34.34,17.9-.7-43L385,431.76v45.13l-38.81,20.74Z" transform="translate(-155.23 -230.81)"/><path class="cls-2" d="M157.23,420.4s15.68-69,77.42-49.81l27.78-31.25s-9.71-30.39-36.77-25.79l-.77,11.62-31.4,30.51,1-37.79s-33.06,3.45-36.38,30.64S157.23,420.4,157.23,420.4Z" transform="translate(-155.23 -230.81)"/><path class="cls-2" d="M297.61,350.57l-.72,38.3s32.14,13.58,35.54,20.67V369.72l-.53-11.49s4.07-19.53-45.79-17C286.11,341.19,297.68,347.12,297.61,350.57Z" transform="translate(-155.23 -230.81)"/><path class="cls-2" d="M346.94,357.27l-.77,57.9s21.64,22.91,53.43,8.17c0,0,50.93-24.9,52.46-40.6V317.06s-22.4,36.57-34.27,40l.38,15.59-34.08,21.94L383.45,368S368.77,381,346.94,357.27Z" transform="translate(-155.23 -230.81)"/><path class="cls-3" d="M157.23,342.91s26-25.34,37.28-25V291.34l-36.38,21.74Z" transform="translate(-155.23 -230.81)"/><path class="cls-3" d="M224.64,285.85l1,27.7s31,4.21,36.77,25.79V307.17Z" transform="translate(-155.23 -230.81)"/><path class="cls-3" d="M276.11,333.77l20.78,14.28s-.47-13.18,34.94,3.29l-.47-45.19Z" transform="translate(-155.23 -230.81)"/><path class="cls-3" d="M346.17,300l.77,57.25s24.57,27.58,36.51,10.73V323l34.72,17.87-.38,16.21s35.74-30.45,33.57-40.21L381.79,280.1Z" transform="translate(-155.23 -230.81)"/><polygon class="cls-3" points="86.77 34.99 142.94 66.36 200.38 34.99 199.11 46.74 142.94 78.4 83.19 46.74 86.77 34.99"/><polygon class="cls-4" points="86.77 34.99 142.94 66.36 200.38 34.99 143.57 3.38 86.77 34.99"/></g><g id="Layer_2" data-name="Layer 2"><polygon class="cls-5" points="2 81.97 39.28 60.53 39.28 123.85 69.4 94.74 69.4 52.87 107.19 76.36 107.19 108.53 74.51 145.29 107.19 192.78 64.3 215.76 68.89 198.91 40.3 167.76 42.34 239.76 2 215.25 2 81.97"/><polygon class="cls-5" points="176.13 75.34 119.96 103.42 142.4 117.72 140.77 246.08 115.87 234.66 115.87 205.04 70.43 229.04 70.43 253.04 142.4 293.38 178.17 273.46 176.13 75.34"/><polygon class="cls-5" points="190.94 68.7 190.94 266.82 229.75 246.08 229.75 200.95 259.87 184.36 259.87 230.06 296.13 211.16 296.13 86.06 225.66 49.29 190.94 68.7"/><polygon class="cls-5" points="228.21 92.19 228.21 164.7 262.94 143.25 262.94 110.06 228.21 92.19"/><polygon class="cls-5" points="86.77 34.99 145.49 2.31 199.11 34.99 199.11 46.74 142.94 79.93 84.21 46.74 86.77 34.99"/><polyline class="cls-5" points="86.77 34.99 142.4 66.66 199.11 34.99"/><line class="cls-5" x1="142.4" y1="66.65" x2="142.94" y2="79.93"/></g></svg>